<!--
<svg width="266" height="73" viewBox="0 0 266 73" fill="none" xmlns="http://www.w3.org/2000/svg">
<path d="M107.487 29.2599V57.9067H101.725V45.4498H89.4707V57.9067H83.7494V29.2599H89.4707V40.8647H101.725V29.2599H107.487ZM123.063 35.1434C125.255 35.1434 127.216 35.6033 128.947 36.523C130.705 37.4428 132.085 38.7818 133.086 40.5401C134.087 42.2713 134.587 44.3137 134.587 46.6671C134.587 49.0205 134.087 51.0629 133.086 52.7941C132.085 54.5254 130.705 55.8644 128.947 56.8112C127.216 57.7309 125.255 58.1908 123.063 58.1908C120.872 58.1908 118.898 57.7309 117.139 56.8112C115.408 55.8644 114.042 54.5254 113.041 52.7941C112.04 51.0629 111.54 49.0205 111.54 46.6671C111.54 44.3137 112.04 42.2713 113.041 40.5401C114.042 38.7818 115.408 37.4428 117.139 36.523C118.898 35.6033 120.872 35.1434 123.063 35.1434ZM123.063 40.0938C121.467 40.0938 120.115 40.6618 119.006 41.798C117.897 42.907 117.342 44.5301 117.342 46.6671C117.342 48.8041 117.897 50.4407 119.006 51.5768C120.115 52.6859 121.467 53.2405 123.063 53.2405C124.659 53.2405 126.012 52.6859 127.121 51.5768C128.23 50.4407 128.785 48.8041 128.785 46.6671C128.785 44.5301 128.23 42.907 127.121 41.798C126.012 40.6618 124.659 40.0938 123.063 40.0938ZM149.018 35.1434C151.209 35.1434 153.17 35.6033 154.901 36.523C156.66 37.4428 158.039 38.7818 159.04 40.5401C160.041 42.2713 160.542 44.3137 160.542 46.6671C160.542 49.0205 160.041 51.0629 159.04 52.7941C158.039 54.5254 156.66 55.8644 154.901 56.8112C153.17 57.7309 151.209 58.1908 149.018 58.1908C146.827 58.1908 144.852 57.7309 143.094 56.8112C141.363 55.8644 139.996 54.5254 138.996 52.7941C137.995 51.0629 137.494 49.0205 137.494 46.6671C137.494 44.3137 137.995 42.2713 138.996 40.5401C139.996 38.7818 141.363 37.4428 143.094 36.523C144.852 35.6033 146.827 35.1434 149.018 35.1434ZM149.018 40.0938C147.422 40.0938 146.069 40.6618 144.96 41.798C143.851 42.907 143.297 44.5301 143.297 46.6671C143.297 48.8041 143.851 50.4407 144.96 51.5768C146.069 52.6859 147.422 53.2405 149.018 53.2405C150.614 53.2405 151.966 52.6859 153.076 51.5768C154.185 50.4407 154.739 48.8041 154.739 46.6671C154.739 44.5301 154.185 42.907 153.076 41.798C151.966 40.6618 150.614 40.0938 149.018 40.0938Z" fill="white"/>
<path d="M180.572 43.137C182.303 43.4886 183.683 44.3137 184.711 45.6121C185.766 46.8835 186.293 48.3848 186.293 50.1161C186.293 52.5236 185.482 54.4307 183.859 55.8373C182.263 57.2169 179.936 57.9067 176.88 57.9067H164.585V29.2599H176.636C179.531 29.2599 181.749 29.8956 183.291 31.167C184.86 32.4384 185.644 34.2237 185.644 36.523C185.644 38.3084 185.171 39.7691 184.224 40.9053C183.304 42.0414 182.087 42.7853 180.572 43.137ZM170.306 41.2705H175.459C176.893 41.2705 177.975 40.9594 178.706 40.3372C179.463 39.688 179.842 38.7683 179.842 37.578C179.842 36.3878 179.476 35.4681 178.746 34.8188C178.016 34.1696 176.893 33.845 175.378 33.845H170.306V41.2705ZM175.743 53.2405C177.258 53.2405 178.421 52.9159 179.233 52.2666C180.045 51.5904 180.45 50.6165 180.45 49.3451C180.45 48.0738 180.031 47.0999 179.192 46.4237C178.381 45.7203 177.218 45.3687 175.703 45.3687H170.306V53.2405H175.743ZM199.107 35.1434C201 35.1434 202.623 35.5898 203.976 36.4825C205.329 37.3751 206.289 38.5789 206.857 40.0938V35.4275H212.538V57.9067H206.857V53.1999C206.289 54.7147 205.329 55.932 203.976 56.8518C202.623 57.7444 201 58.1908 199.107 58.1908C197.213 58.1908 195.509 57.7309 193.994 56.8112C192.479 55.8915 191.289 54.566 190.423 52.8347C189.585 51.0764 189.166 49.0205 189.166 46.6671C189.166 44.3137 189.585 42.2713 190.423 40.5401C191.289 38.7818 192.479 37.4428 193.994 36.523C195.509 35.6033 197.213 35.1434 199.107 35.1434ZM200.892 40.1343C199.107 40.1343 197.673 40.7159 196.591 41.8791C195.509 43.0423 194.968 44.6383 194.968 46.6671C194.968 48.6959 195.509 50.2919 196.591 51.4551C197.673 52.5912 199.107 53.1593 200.892 53.1593C202.623 53.1593 204.044 52.5777 205.153 51.4145C206.289 50.2243 206.857 48.6418 206.857 46.6671C206.857 44.6653 206.289 43.0829 205.153 41.9197C204.044 40.7294 202.623 40.1343 200.892 40.1343ZM231.113 35.1029C233.709 35.1029 235.779 35.955 237.321 37.6592C238.863 39.3634 239.634 41.7574 239.634 44.8412V57.9067H233.953V45.4904C233.953 43.705 233.493 42.3254 232.573 41.3516C231.654 40.3507 230.396 39.8503 228.8 39.8503C227.177 39.8503 225.878 40.3778 224.904 41.4328C223.931 42.4878 223.444 44.0026 223.444 45.9773V57.9067H217.722V35.4275H223.444V39.9314C224.039 38.4166 225.013 37.2399 226.365 36.4013C227.745 35.5357 229.327 35.1029 231.113 35.1029ZM257.814 57.9067L250.389 48.0873V57.9067H244.668V27.8803H250.389V44.76L257.774 35.4275H264.55L255.096 46.6265L264.793 57.9067H257.814Z" fill="#5CE1E6"/>
<path d="M36.0678 0C28.9343 -8.50666e-08 21.9609 2.11534 16.0296 6.07852C10.0983 10.0417 5.47539 15.6747 2.7455 22.2652C0.0156126 28.8558 -0.698651 36.1078 0.693031 43.1043C2.08471 50.1007 5.51984 56.5274 10.564 61.5716C15.6082 66.6157 22.0348 70.0509 29.0313 71.4426C36.0278 72.8342 43.2798 72.12 49.8703 69.3901C56.4609 66.6602 62.0939 62.0373 66.0571 56.106C70.0202 50.1747 72.1356 43.2013 72.1356 36.0678L54.1017 36.0678C54.1017 39.6346 53.044 43.1212 51.0624 46.0869C49.0808 49.0526 46.2643 51.364 42.9691 52.7289C39.6738 54.0939 36.0478 54.451 32.5496 53.7552C29.0513 53.0593 25.838 51.3418 23.3159 48.8197C20.7938 46.2976 19.0763 43.0843 18.3804 39.586C17.6846 36.0878 18.0417 32.4618 19.4066 29.1665C20.7716 25.8713 23.083 23.0547 26.0487 21.0732C29.0144 19.0916 32.501 18.0339 36.0678 18.0339L36.0678 0Z" fill="white"/>
<path d="M36.0678 0C31.3313 -5.64821e-08 26.6412 0.932921 22.2652 2.7455C17.8893 4.55807 13.9132 7.21481 10.564 10.564C7.21481 13.9132 4.55807 17.8893 2.7455 22.2653C0.93292 26.6412 -7.1519e-07 31.3313 0 36.0678L18.0339 36.0678C18.0339 33.6996 18.5004 31.3545 19.4066 29.1665C20.3129 26.9785 21.6413 24.9905 23.3159 23.3159C24.9905 21.6413 26.9785 20.3129 29.1665 19.4066C31.3545 18.5004 33.6995 18.0339 36.0678 18.0339L36.0678 0Z" fill="#5CE1E6"/>
<circle cx="36.0678" cy="36.0678" r="11.2712" fill="#5CE1E6"/>
<path d="M47.339 36.0678C47.339 34.5877 47.0475 33.122 46.481 31.7545C45.9146 30.387 45.0844 29.1445 44.0377 28.0979C42.9911 27.0513 41.7486 26.221 40.3811 25.6546C39.0136 25.0882 37.548 24.7966 36.0678 24.7966C34.5876 24.7966 33.122 25.0882 31.7545 25.6546C30.387 26.221 29.1445 27.0513 28.0979 28.0979C27.0512 29.1445 26.221 30.387 25.6546 31.7545C25.0882 33.122 24.7966 34.5877 24.7966 36.0678L36.0678 36.0678H47.339Z" fill="white"/>
</svg>
-->
<svg width="133" height="34" viewBox="0 0 133 34" fill="none" xmlns="http://www.w3.org/2000/svg">
	<path d="M40.08 26.765V27.6125H38.685V32H37.635V27.6125H36.24V26.765H40.08ZM41.8961 27.6125V28.925H43.6586V29.7575H41.8961V31.145H43.8836V32H40.8461V26.7575H43.8836V27.6125H41.8961ZM44.5828 29.375C44.5828 28.86 44.6978 28.4 44.9278 27.995C45.1628 27.585 45.4803 27.2675 45.8803 27.0425C46.2853 26.8125 46.7378 26.6975 47.2378 26.6975C47.8228 26.6975 48.3353 26.8475 48.7753 27.1475C49.2153 27.4475 49.5228 27.8625 49.6978 28.3925H48.4903C48.3703 28.1425 48.2003 27.955 47.9803 27.83C47.7653 27.705 47.5153 27.6425 47.2303 27.6425C46.9253 27.6425 46.6528 27.715 46.4128 27.86C46.1778 28 45.9928 28.2 45.8578 28.46C45.7278 28.72 45.6628 29.025 45.6628 29.375C45.6628 29.72 45.7278 30.025 45.8578 30.29C45.9928 30.55 46.1778 30.7525 46.4128 30.8975C46.6528 31.0375 46.9253 31.1075 47.2303 31.1075C47.5153 31.1075 47.7653 31.045 47.9803 30.92C48.2003 30.79 48.3703 30.6 48.4903 30.35H49.6978C49.5228 30.885 49.2153 31.3025 48.7753 31.6025C48.3403 31.8975 47.8278 32.045 47.2378 32.045C46.7378 32.045 46.2853 31.9325 45.8803 31.7075C45.4803 31.4775 45.1628 31.16 44.9278 30.755C44.6978 30.35 44.5828 29.89 44.5828 29.375ZM54.9371 26.765V32H53.8871V29.7725H51.6446V32H50.5946V26.765H51.6446V28.9175H53.8871V26.765H54.9371ZM60.4481 32H59.3981L57.0206 28.4075V32H55.9706V26.7575H57.0206L59.3981 30.3575V26.7575H60.4481V32ZM63.9158 32.0525C63.4258 32.0525 62.9758 31.9375 62.5658 31.7075C62.1558 31.4775 61.8308 31.16 61.5908 30.755C61.3508 30.345 61.2308 29.8825 61.2308 29.3675C61.2308 28.8575 61.3508 28.4 61.5908 27.995C61.8308 27.585 62.1558 27.265 62.5658 27.035C62.9758 26.805 63.4258 26.69 63.9158 26.69C64.4108 26.69 64.8608 26.805 65.2658 27.035C65.6758 27.265 65.9983 27.585 66.2333 27.995C66.4733 28.4 66.5933 28.8575 66.5933 29.3675C66.5933 29.8825 66.4733 30.345 66.2333 30.755C65.9983 31.16 65.6758 31.4775 65.2658 31.7075C64.8558 31.9375 64.4058 32.0525 63.9158 32.0525ZM63.9158 31.115C64.2308 31.115 64.5083 31.045 64.7483 30.905C64.9883 30.76 65.1758 30.555 65.3108 30.29C65.4458 30.025 65.5133 29.7175 65.5133 29.3675C65.5133 29.0175 65.4458 28.7125 65.3108 28.4525C65.1758 28.1875 64.9883 27.985 64.7483 27.845C64.5083 27.705 64.2308 27.635 63.9158 27.635C63.6008 27.635 63.3208 27.705 63.0758 27.845C62.8358 27.985 62.6483 28.1875 62.5133 28.4525C62.3783 28.7125 62.3108 29.0175 62.3108 29.3675C62.3108 29.7175 62.3783 30.025 62.5133 30.29C62.6483 30.555 62.8358 30.76 63.0758 30.905C63.3208 31.045 63.6008 31.115 63.9158 31.115ZM68.4244 31.1675H70.1494V32H67.3744V26.765H68.4244V31.1675ZM73.2468 32.0525C72.7568 32.0525 72.3068 31.9375 71.8968 31.7075C71.4868 31.4775 71.1618 31.16 70.9218 30.755C70.6818 30.345 70.5618 29.8825 70.5618 29.3675C70.5618 28.8575 70.6818 28.4 70.9218 27.995C71.1618 27.585 71.4868 27.265 71.8968 27.035C72.3068 26.805 72.7568 26.69 73.2468 26.69C73.7418 26.69 74.1918 26.805 74.5968 27.035C75.0068 27.265 75.3293 27.585 75.5643 27.995C75.8043 28.4 75.9243 28.8575 75.9243 29.3675C75.9243 29.8825 75.8043 30.345 75.5643 30.755C75.3293 31.16 75.0068 31.4775 74.5968 31.7075C74.1868 31.9375 73.7368 32.0525 73.2468 32.0525ZM73.2468 31.115C73.5618 31.115 73.8393 31.045 74.0793 30.905C74.3193 30.76 74.5068 30.555 74.6418 30.29C74.7768 30.025 74.8443 29.7175 74.8443 29.3675C74.8443 29.0175 74.7768 28.7125 74.6418 28.4525C74.5068 28.1875 74.3193 27.985 74.0793 27.845C73.8393 27.705 73.5618 27.635 73.2468 27.635C72.9318 27.635 72.6518 27.705 72.4068 27.845C72.1668 27.985 71.9793 28.1875 71.8443 28.4525C71.7093 28.7125 71.6418 29.0175 71.6418 29.3675C71.6418 29.7175 71.7093 30.025 71.8443 30.29C71.9793 30.555 72.1668 30.76 72.4068 30.905C72.6518 31.045 72.9318 31.115 73.2468 31.115ZM80.3505 28.34C80.2305 28.12 80.0655 27.9525 79.8555 27.8375C79.6455 27.7225 79.4005 27.665 79.1205 27.665C78.8105 27.665 78.5355 27.735 78.2955 27.875C78.0555 28.015 77.868 28.215 77.733 28.475C77.598 28.735 77.5305 29.035 77.5305 29.375C77.5305 29.725 77.598 30.03 77.733 30.29C77.873 30.55 78.0655 30.75 78.3105 30.89C78.5555 31.03 78.8405 31.1 79.1655 31.1C79.5655 31.1 79.893 30.995 80.148 30.785C80.403 30.57 80.5705 30.2725 80.6505 29.8925H78.8505V29.09H81.6855V30.005C81.6155 30.37 81.4655 30.7075 81.2355 31.0175C81.0055 31.3275 80.708 31.5775 80.343 31.7675C79.983 31.9525 79.578 32.045 79.128 32.045C78.623 32.045 78.1655 31.9325 77.7555 31.7075C77.3505 31.4775 77.0305 31.16 76.7955 30.755C76.5655 30.35 76.4505 29.89 76.4505 29.375C76.4505 28.86 76.5655 28.4 76.7955 27.995C77.0305 27.585 77.3505 27.2675 77.7555 27.0425C78.1655 26.8125 78.6205 26.6975 79.1205 26.6975C79.7105 26.6975 80.223 26.8425 80.658 27.1325C81.093 27.4175 81.393 27.82 81.558 28.34H80.3505ZM86.6248 26.765L84.8548 30.1775V32H83.8048V30.1775L82.0273 26.765H83.2123L84.3373 29.1575L85.4548 26.765H86.6248ZM96.015 26.765L94.5525 32H93.315L92.3325 28.2725L91.305 32L90.075 32.0075L88.665 26.765H89.79L90.7125 30.83L91.7775 26.765H92.9475L93.9525 30.8075L94.8825 26.765H96.015ZM99.1306 32.0525C98.6406 32.0525 98.1906 31.9375 97.7806 31.7075C97.3706 31.4775 97.0456 31.16 96.8056 30.755C96.5656 30.345 96.4456 29.8825 96.4456 29.3675C96.4456 28.8575 96.5656 28.4 96.8056 27.995C97.0456 27.585 97.3706 27.265 97.7806 27.035C98.1906 26.805 98.6406 26.69 99.1306 26.69C99.6256 26.69 100.076 26.805 100.481 27.035C100.891 27.265 101.213 27.585 101.448 27.995C101.688 28.4 101.808 28.8575 101.808 29.3675C101.808 29.8825 101.688 30.345 101.448 30.755C101.213 31.16 100.891 31.4775 100.481 31.7075C100.071 31.9375 99.6206 32.0525 99.1306 32.0525ZM99.1306 31.115C99.4456 31.115 99.7231 31.045 99.9631 30.905C100.203 30.76 100.391 30.555 100.526 30.29C100.661 30.025 100.728 29.7175 100.728 29.3675C100.728 29.0175 100.661 28.7125 100.526 28.4525C100.391 28.1875 100.203 27.985 99.9631 27.845C99.7231 27.705 99.4456 27.635 99.1306 27.635C98.8156 27.635 98.5356 27.705 98.2906 27.845C98.0506 27.985 97.8631 28.1875 97.7281 28.4525C97.5931 28.7125 97.5256 29.0175 97.5256 29.3675C97.5256 29.7175 97.5931 30.025 97.7281 30.29C97.8631 30.555 98.0506 30.76 98.2906 30.905C98.5356 31.045 98.8156 31.115 99.1306 31.115ZM105.289 32L104.134 29.96H103.639V32H102.589V26.765H104.554C104.959 26.765 105.304 26.8375 105.589 26.9825C105.874 27.1225 106.087 27.315 106.227 27.56C106.372 27.8 106.444 28.07 106.444 28.37C106.444 28.715 106.344 29.0275 106.144 29.3075C105.944 29.5825 105.647 29.7725 105.252 29.8775L106.504 32H105.289ZM103.639 29.1725H104.517C104.802 29.1725 105.014 29.105 105.154 28.97C105.294 28.83 105.364 28.6375 105.364 28.3925C105.364 28.1525 105.294 27.9675 105.154 27.8375C105.014 27.7025 104.802 27.635 104.517 27.635H103.639V29.1725ZM108.444 31.1675H110.169V32H107.394V26.765H108.444V31.1675ZM112.666 26.765C113.216 26.765 113.699 26.8725 114.114 27.0875C114.534 27.3025 114.856 27.61 115.081 28.01C115.311 28.405 115.426 28.865 115.426 29.39C115.426 29.915 115.311 30.375 115.081 30.77C114.856 31.16 114.534 31.4625 114.114 31.6775C113.699 31.8925 113.216 32 112.666 32H110.836V26.765H112.666ZM112.629 31.1075C113.179 31.1075 113.604 30.9575 113.904 30.6575C114.204 30.3575 114.354 29.935 114.354 29.39C114.354 28.845 114.204 28.42 113.904 28.115C113.604 27.805 113.179 27.65 112.629 27.65H111.886V31.1075H112.629Z" fill="white" />
	<path d="M36.594 14.664C36.594 13.416 36.864 12.306 37.404 11.334C37.944 10.35 38.694 9.588 39.654 9.048C40.626 8.496 41.724 8.22 42.948 8.22C44.448 8.22 45.732 8.616 46.8 9.408C47.868 10.2 48.582 11.28 48.942 12.648H45.558C45.306 12.12 44.946 11.718 44.478 11.442C44.022 11.166 43.5 11.028 42.912 11.028C41.964 11.028 41.196 11.358 40.608 12.018C40.02 12.678 39.726 13.56 39.726 14.664C39.726 15.768 40.02 16.65 40.608 17.31C41.196 17.97 41.964 18.3 42.912 18.3C43.5 18.3 44.022 18.162 44.478 17.886C44.946 17.61 45.306 17.208 45.558 16.68H48.942C48.582 18.048 47.868 19.128 46.8 19.92C45.732 20.7 44.448 21.09 42.948 21.09C41.724 21.09 40.626 20.82 39.654 20.28C38.694 19.728 37.944 18.966 37.404 17.994C36.864 17.022 36.594 15.912 36.594 14.664ZM55.3989 21.144C54.4149 21.144 53.5269 20.934 52.7349 20.514C51.9549 20.094 51.3369 19.494 50.8809 18.714C50.4369 17.934 50.2149 17.022 50.2149 15.978C50.2149 14.946 50.4429 14.04 50.8989 13.26C51.3549 12.468 51.9789 11.862 52.7709 11.442C53.5629 11.022 54.4509 10.812 55.4349 10.812C56.4189 10.812 57.3069 11.022 58.0989 11.442C58.8909 11.862 59.5149 12.468 59.9709 13.26C60.4269 14.04 60.6549 14.946 60.6549 15.978C60.6549 17.01 60.4209 17.922 59.9529 18.714C59.4969 19.494 58.8669 20.094 58.0629 20.514C57.2709 20.934 56.3829 21.144 55.3989 21.144ZM55.3989 18.48C55.9869 18.48 56.4849 18.264 56.8929 17.832C57.3129 17.4 57.5229 16.782 57.5229 15.978C57.5229 15.174 57.3189 14.556 56.9109 14.124C56.5149 13.692 56.0229 13.476 55.4349 13.476C54.8349 13.476 54.3369 13.692 53.9409 14.124C53.5449 14.544 53.3469 15.162 53.3469 15.978C53.3469 16.782 53.5389 17.4 53.9229 17.832C54.3189 18.264 54.8109 18.48 55.3989 18.48ZM68.4079 10.848C69.5839 10.848 70.5199 11.232 71.2159 12C71.9239 12.756 72.2779 13.8 72.2779 15.132V21H69.2179V15.546C69.2179 14.874 69.0439 14.352 68.6959 13.98C68.3479 13.608 67.8799 13.422 67.2919 13.422C66.7039 13.422 66.2359 13.608 65.8879 13.98C65.5399 14.352 65.3659 14.874 65.3659 15.546V21H62.2879V10.956H65.3659V12.288C65.6779 11.844 66.0979 11.496 66.6259 11.244C67.1539 10.98 67.7479 10.848 68.4079 10.848ZM83.8848 15.816C83.8848 16.104 83.8668 16.404 83.8308 16.716H76.8648C76.9128 17.34 77.1108 17.82 77.4588 18.156C77.8188 18.48 78.2568 18.642 78.7728 18.642C79.5408 18.642 80.0748 18.318 80.3748 17.67H83.6508C83.4828 18.33 83.1768 18.924 82.7328 19.452C82.3008 19.98 81.7548 20.394 81.0948 20.694C80.4348 20.994 79.6968 21.144 78.8808 21.144C77.8968 21.144 77.0208 20.934 76.2528 20.514C75.4848 20.094 74.8848 19.494 74.4528 18.714C74.0208 17.934 73.8048 17.022 73.8048 15.978C73.8048 14.934 74.0148 14.022 74.4348 13.242C74.8668 12.462 75.4668 11.862 76.2348 11.442C77.0028 11.022 77.8848 10.812 78.8808 10.812C79.8528 10.812 80.7168 11.016 81.4728 11.424C82.2288 11.832 82.8168 12.414 83.2368 13.17C83.6688 13.926 83.8848 14.808 83.8848 15.816ZM80.7348 15.006C80.7348 14.478 80.5548 14.058 80.1948 13.746C79.8348 13.434 79.3848 13.278 78.8448 13.278C78.3288 13.278 77.8908 13.428 77.5308 13.728C77.1828 14.028 76.9668 14.454 76.8828 15.006H80.7348ZM91.4486 21L89.5226 18.21L87.9026 21H84.5726L87.8846 15.87L84.4826 10.956H87.9386L89.8646 13.728L91.4846 10.956H94.8146L91.4486 16.014L94.9046 21H91.4486Z" fill="white" />
	<path d="M99.1686 12.63C99.5286 12.078 99.9786 11.646 100.519 11.334C101.059 11.01 101.659 10.848 102.319 10.848V14.106H101.473C100.705 14.106 100.129 14.274 99.7446 14.61C99.3606 14.934 99.1686 15.51 99.1686 16.338V21H96.0906V10.956H99.1686V12.63ZM105.338 9.912C104.798 9.912 104.354 9.756 104.006 9.444C103.67 9.12 103.502 8.724 103.502 8.256C103.502 7.776 103.67 7.38 104.006 7.068C104.354 6.744 104.798 6.582 105.338 6.582C105.866 6.582 106.298 6.744 106.634 7.068C106.982 7.38 107.156 7.776 107.156 8.256C107.156 8.724 106.982 9.12 106.634 9.444C106.298 9.756 105.866 9.912 105.338 9.912ZM106.868 10.956V21H103.79V10.956H106.868ZM113.184 21.144C112.308 21.144 111.528 20.994 110.844 20.694C110.16 20.394 109.62 19.986 109.224 19.47C108.828 18.942 108.606 18.354 108.558 17.706H111.6C111.636 18.054 111.798 18.336 112.086 18.552C112.374 18.768 112.728 18.876 113.148 18.876C113.532 18.876 113.826 18.804 114.03 18.66C114.246 18.504 114.354 18.306 114.354 18.066C114.354 17.778 114.204 17.568 113.904 17.436C113.604 17.292 113.118 17.136 112.446 16.968C111.726 16.8 111.126 16.626 110.646 16.446C110.166 16.254 109.752 15.96 109.404 15.564C109.056 15.156 108.882 14.61 108.882 13.926C108.882 13.35 109.038 12.828 109.35 12.36C109.674 11.88 110.142 11.502 110.754 11.226C111.378 10.95 112.116 10.812 112.968 10.812C114.228 10.812 115.218 11.124 115.938 11.748C116.67 12.372 117.09 13.2 117.198 14.232H114.354C114.306 13.884 114.15 13.608 113.886 13.404C113.634 13.2 113.298 13.098 112.878 13.098C112.518 13.098 112.242 13.17 112.05 13.314C111.858 13.446 111.762 13.632 111.762 13.872C111.762 14.16 111.912 14.376 112.212 14.52C112.524 14.664 113.004 14.808 113.652 14.952C114.396 15.144 115.002 15.336 115.47 15.528C115.938 15.708 116.346 16.008 116.694 16.428C117.054 16.836 117.24 17.388 117.252 18.084C117.252 18.672 117.084 19.2 116.748 19.668C116.424 20.124 115.95 20.484 115.326 20.748C114.714 21.012 114 21.144 113.184 21.144Z" fill="#5CE1E6" />
	<path d="M16.4063 0C13.2417 -3.77363e-08 10.1483 0.938383 7.51713 2.69649C4.88594 4.45459 2.83518 6.95345 1.62418 9.87706C0.413176 12.8007 0.096322 16.0177 0.713685 19.1214C1.33105 22.2251 2.8549 25.0761 5.09254 27.3137C7.33018 29.5513 10.1811 31.0752 13.2848 31.6926C16.3885 32.3099 19.6056 31.9931 22.5292 30.7821C25.4528 29.5711 27.9517 27.5203 29.7098 24.8891C31.4679 22.2579 32.4062 19.1645 32.4062 16L24.4062 16C24.4062 17.5823 23.9371 19.129 23.058 20.4446C22.179 21.7602 20.9295 22.7855 19.4677 23.391C18.0059 23.9965 16.3974 24.155 14.8455 23.8463C13.2937 23.5376 11.8682 22.7757 10.7494 21.6569C9.63057 20.538 8.86865 19.1126 8.55997 17.5607C8.25129 16.0089 8.40971 14.4003 9.01521 12.9385C9.62072 11.4767 10.6461 10.2273 11.9617 9.34824C13.2773 8.46919 14.824 8 16.4063 8L16.4063 0Z" fill="white" />
	<path d="M16.4063 0C14.3051 -2.5056e-08 12.2245 0.413852 10.2833 1.21793C8.34211 2.022 6.57828 3.20055 5.09254 4.68629C3.6068 6.17203 2.42825 7.93586 1.62418 9.87707C0.820102 11.8183 0.40625 13.8989 0.40625 16L8.40625 16C8.40625 14.9494 8.61318 13.9091 9.01521 12.9385C9.41725 11.9679 10.0065 11.086 10.7494 10.3431C11.4923 9.60028 12.3742 9.011 13.3448 8.60896C14.3154 8.20693 15.3557 8 16.4063 8L16.4063 0Z" fill="#5CE1E6" />
	<circle cx="16.4062" cy="16" r="5" fill="#5CE1E6" />
	<path d="M21.4062 16C21.4062 15.3434 21.2769 14.6932 21.0256 14.0866C20.7744 13.48 20.4061 12.9288 19.9418 12.4645C19.4775 12.0002 18.9263 11.6319 18.3197 11.3806C17.713 11.1293 17.0629 11 16.4062 11C15.7496 11 15.0995 11.1293 14.4928 11.3806C13.8862 11.6319 13.335 12.0002 12.8707 12.4645C12.4064 12.9288 12.0381 13.48 11.7869 14.0866C11.5356 14.6932 11.4062 15.3434 11.4063 16L16.4062 16H21.4062Z" fill="white" />
</svg>
